<svg width="32" height="32" viewBox="0 0 32 32" fill="none" xmlns="http://www.w3.org/2000/svg">
	<style>
		path {
			fill: #000000;
		}
		@media ( prefers-color-scheme: dark ) {
			path {
				fill: #FFFFFF;
			}
		}
	</style>
<path fill-rule="evenodd" clip-rule="evenodd" d="M0 15.9887C0 16.8733 0.509088 17.4858 1.39446 17.6786C2.83319 17.9622 3.38654 18.6767 3.38654 20.4234V23.1002C3.38654 26.4915 4.93594 28 8.24501 28C8.51063 28 8.76517 27.966 8.96438 27.9093C9.60627 27.7278 9.91615 27.2854 9.91615 26.741C9.91615 26.1399 9.65054 25.7996 9.10825 25.6522C8.97545 25.6181 8.84264 25.5955 8.6877 25.5728C6.98336 25.4367 6.37467 24.6767 6.37467 22.7372V19.4367C6.37467 17.4631 5.22369 16.2949 3.33121 16.0794C3.22054 16.0681 3.22054 15.9319 3.33121 15.9206C5.22369 15.7164 6.37467 14.5482 6.37467 12.5747V9.2741C6.37467 7.33459 6.98336 6.58601 8.6877 6.43856C8.87584 6.41588 9.04185 6.39319 9.17465 6.34783C9.66161 6.18904 9.91615 5.83743 9.91615 5.27032C9.91615 4.7259 9.61734 4.30624 8.99758 4.11342C8.76517 4.03403 8.48849 4 8.16754 4C4.92487 4 3.38654 5.53119 3.38654 8.92249V11.5879C3.38654 13.3233 2.82212 14.0378 1.39446 14.3214C0.509088 14.5142 0 15.1153 0 15.9887ZM32 15.9887C32 15.1153 31.4909 14.5142 30.6055 14.3214C29.1889 14.0265 28.6135 13.3233 28.6135 11.5879V8.92249C28.6135 5.53119 27.0751 4 23.8435 4C23.5115 4 23.2348 4.03403 23.0024 4.11342C22.3605 4.30624 22.0949 4.7259 22.0949 5.27032C22.0949 5.83743 22.3495 6.17769 22.8253 6.34783C22.9582 6.39319 23.1242 6.41588 23.3123 6.43856C25.0056 6.55198 25.6364 7.33459 25.6364 9.2741V12.5747C25.6364 14.5482 26.7874 15.8526 28.6799 15.9206C28.7905 15.9319 28.7795 16.0681 28.6799 16.0794C26.7874 16.1701 25.6364 17.4518 25.6364 19.4367V22.7372C25.6364 24.6767 25.0166 25.4253 23.3123 25.5728C23.1574 25.5955 23.0246 25.6181 22.9028 25.6522C22.3605 25.7996 22.0949 26.1399 22.0949 26.741C22.0949 27.3081 22.4048 27.7505 23.0356 27.9093C23.2348 27.966 23.4894 28 23.755 28C27.0641 28 28.6135 26.4915 28.6135 23.1002V20.4234C28.6135 18.6767 29.1668 17.9622 30.6055 17.6786C31.4909 17.4858 32 16.8733 32 15.9887ZM14.7463 9.96786C14.7463 9.43333 15.1692 9 15.6907 9H22.6163C23.1379 9 23.5607 9.43333 23.5607 9.96786V10.0744C23.5607 10.609 23.1379 11.0423 22.6163 11.0423H15.6907C15.1692 11.0423 14.7463 10.609 14.7463 10.0744V9.96786ZM9.39477 9C8.87319 9 8.45037 9.43333 8.45037 9.96786V10.0744C8.45037 10.609 8.87319 11.0423 9.39477 11.0423H12.5428C13.0643 11.0423 13.4871 10.609 13.4871 10.0744V9.96786C13.4871 9.43333 13.0643 9 12.5428 9H9.39477ZM8.45037 13.9679C8.45037 13.4333 8.87319 13 9.39477 13H18.8387C19.3603 13 19.7831 13.4333 19.7831 13.9679V14.0321C19.7831 14.5667 19.3603 15 18.8387 15H9.39477C8.87319 15 8.45037 14.5667 8.45037 14.0321V13.9679ZM21.9867 13C21.4651 13 21.0423 13.4333 21.0423 13.9679V14.0321C21.0423 14.5667 21.4651 15 21.9867 15H22.6163C23.1379 15 23.5607 14.5667 23.5607 14.0321V13.9679C23.5607 13.4333 23.1379 13 22.6163 13H21.9867ZM16.0055 17.9679C16.0055 17.4333 16.4284 17 16.9499 17H22.6163C23.1379 17 23.5607 17.4333 23.5607 17.9679V18.0321C23.5607 18.5667 23.1379 19 22.6163 19H16.9499C16.4284 19 16.0055 18.5667 16.0055 18.0321V17.9679ZM9.39477 17C8.87319 17 8.45037 17.4333 8.45037 17.9679V18.0321C8.45037 18.5667 8.87319 19 9.39477 19H13.8019C14.3235 19 14.7463 18.5667 14.7463 18.0321V17.9679C14.7463 17.4333 14.3235 17 13.8019 17H9.39477ZM8.45037 21.9679C8.45037 21.4333 8.87319 21 9.39477 21H16.3203C16.8419 21 17.2647 21.4333 17.2647 21.9679V22.0321C17.2647 22.5667 16.8419 23 16.3203 23H9.39477C8.87319 23 8.45037 22.5667 8.45037 22.0321V21.9679ZM19.4683 21C18.9467 21 18.5239 21.4333 18.5239 21.9679V22.0321C18.5239 22.5667 18.9467 23 19.4683 23H22.6163C23.1379 23 23.5607 22.5667 23.5607 22.0321V21.9679C23.5607 21.4333 23.1379 21 22.6163 21H19.4683Z"/>
</svg>
