<svg width="37" height="30" viewBox="0 0 26 19" fill="none" xmlns="http://www.w3.org/2000/svg">
<path fill-rule="evenodd" clip-rule="evenodd" d="M0 9.29004C0 9.97559 0.404297 10.4502 1.10742 10.5996C2.25 10.8193 2.68945 11.373 2.68945 12.7266V14.8008C2.68945 17.4287 3.91992 18.5977 6.54785 18.5977C6.75879 18.5977 6.96094 18.5713 7.11914 18.5273C7.62891 18.3867 7.875 18.0439 7.875 17.6221C7.875 17.1562 7.66406 16.8926 7.2334 16.7783C7.12793 16.752 7.02246 16.7344 6.89941 16.7168C5.5459 16.6113 5.0625 16.0225 5.0625 14.5195V11.9619C5.0625 10.4326 4.14844 9.52734 2.64551 9.36035C2.55762 9.35156 2.55762 9.24609 2.64551 9.2373C4.14844 9.0791 5.0625 8.17383 5.0625 6.64453V4.08691C5.0625 2.58398 5.5459 2.00391 6.89941 1.88965C7.04883 1.87207 7.18066 1.85449 7.28613 1.81934C7.67285 1.69629 7.875 1.42383 7.875 0.984375C7.875 0.5625 7.6377 0.237305 7.14551 0.0878906C6.96094 0.0263672 6.74121 0 6.48633 0C3.91113 0 2.68945 1.18652 2.68945 3.81445V5.87988C2.68945 7.22461 2.24121 7.77832 1.10742 7.99805C0.404297 8.14746 0 8.61328 0 9.29004ZM25.4131 9.29004C25.4131 8.61328 25.0088 8.14746 24.3057 7.99805C23.1807 7.76953 22.7236 7.22461 22.7236 5.87988V3.81445C22.7236 1.18652 21.502 0 18.9355 0C18.6719 0 18.4521 0.0263672 18.2676 0.0878906C17.7578 0.237305 17.5469 0.5625 17.5469 0.984375C17.5469 1.42383 17.749 1.6875 18.127 1.81934C18.2324 1.85449 18.3643 1.87207 18.5137 1.88965C19.8584 1.97754 20.3594 2.58398 20.3594 4.08691V6.64453C20.3594 8.17383 21.2734 9.18457 22.7764 9.2373C22.8643 9.24609 22.8555 9.35156 22.7764 9.36035C21.2734 9.43066 20.3594 10.4238 20.3594 11.9619V14.5195C20.3594 16.0225 19.8672 16.6025 18.5137 16.7168C18.3906 16.7344 18.2852 16.752 18.1885 16.7783C17.7578 16.8926 17.5469 17.1562 17.5469 17.6221C17.5469 18.0615 17.793 18.4043 18.2939 18.5273C18.4521 18.5713 18.6543 18.5977 18.8652 18.5977C21.4932 18.5977 22.7236 17.4287 22.7236 14.8008V12.7266C22.7236 11.373 23.1631 10.8193 24.3057 10.5996C25.0088 10.4502 25.4131 9.97559 25.4131 9.29004ZM11.7109 4.20709C11.7109 3.79288 12.0467 3.45709 12.4609 3.45709H17.9609C18.3752 3.45709 18.7109 3.79288 18.7109 4.20709V4.70709C18.7109 5.12131 18.3752 5.45709 17.9609 5.45709H12.4609C12.0467 5.45709 11.7109 5.12131 11.7109 4.70709V4.20709ZM7.46094 3.45709C7.04672 3.45709 6.71094 3.79288 6.71094 4.20709V4.70709C6.71094 5.12131 7.04672 5.45709 7.46094 5.45709H9.96094C10.3752 5.45709 10.7109 5.12131 10.7109 4.70709V4.20709C10.7109 3.79288 10.3752 3.45709 9.96094 3.45709H7.46094ZM6.71094 7.54712C6.71094 7.13291 7.04672 6.79712 7.46094 6.79712H14.9609C15.3752 6.79712 15.7109 7.13291 15.7109 7.54712V8.04712C15.7109 8.46133 15.3752 8.79712 14.9609 8.79712H7.46094C7.04672 8.79712 6.71094 8.46133 6.71094 8.04712V7.54712ZM17.4609 6.79712C17.0467 6.79712 16.7109 7.13291 16.7109 7.54712V8.04712C16.7109 8.46133 17.0467 8.79712 17.4609 8.79712H17.9609C18.3752 8.79712 18.7109 8.46133 18.7109 8.04712V7.54712C18.7109 7.13291 18.3752 6.79712 17.9609 6.79712H17.4609ZM12.7109 10.8771C12.7109 10.4629 13.0467 10.1271 13.4609 10.1271H17.9609C18.3752 10.1271 18.7109 10.4629 18.7109 10.8771V11.3771C18.7109 11.7913 18.3752 12.1271 17.9609 12.1271H13.4609C13.0467 12.1271 12.7109 11.7913 12.7109 11.3771V10.8771ZM7.46094 10.1271C7.04672 10.1271 6.71094 10.4629 6.71094 10.8771V11.3771C6.71094 11.7913 7.04672 12.1271 7.46094 12.1271H10.9609C11.3752 12.1271 11.7109 11.7913 11.7109 11.3771V10.8771C11.7109 10.4629 11.3752 10.1271 10.9609 10.1271H7.46094ZM6.71094 14.2071C6.71094 13.7929 7.04672 13.4571 7.46094 13.4571H12.9609C13.3752 13.4571 13.7109 13.7929 13.7109 14.2071V14.7071C13.7109 15.1213 13.3752 15.4571 12.9609 15.4571H7.46094C7.04672 15.4571 6.71094 15.1213 6.71094 14.7071V14.2071ZM15.4609 13.4571C15.0467 13.4571 14.7109 13.7929 14.7109 14.2071V14.7071C14.7109 15.1213 15.0467 15.4571 15.4609 15.4571H17.9609C18.3752 15.4571 18.7109 15.1213 18.7109 14.7071V14.2071C18.7109 13.7929 18.3752 13.4571 17.9609 13.4571H15.4609Z" fill="white" id="svg-to-change-color"/>
</svg>