<svg width="26" height="20" viewBox="0 0 26 20" fill="none" xmlns="http://www.w3.org/2000/svg">
<path fill-rule="evenodd" clip-rule="evenodd" d="M0 9.83295C0 10.5185 0.404297 10.9931 1.10742 11.1425C2.25 11.3622 2.68945 11.916 2.68945 13.2695V15.3437C2.68945 17.9716 3.91992 19.1406 6.54785 19.1406C6.75879 19.1406 6.96094 19.1142 7.11914 19.0703C7.62891 18.9296 7.875 18.5869 7.875 18.165C7.875 17.6992 7.66406 17.4355 7.2334 17.3212C7.12793 17.2949 7.02246 17.2773 6.89941 17.2597C5.5459 17.1542 5.0625 16.5654 5.0625 15.0624V12.5048C5.0625 10.9755 4.14844 10.0703 2.64551 9.90326C2.55762 9.89447 2.55762 9.789 2.64551 9.78021C4.14844 9.62201 5.0625 8.71674 5.0625 7.18744V4.62982C5.0625 3.12689 5.5459 2.54681 6.89941 2.43256C7.04883 2.41498 7.18066 2.3974 7.28613 2.36224C7.67285 2.2392 7.875 1.96674 7.875 1.52728C7.875 1.10541 7.6377 0.780212 7.14551 0.630798C6.96094 0.569275 6.74121 0.542908 6.48633 0.542908C3.91113 0.542908 2.68945 1.72943 2.68945 4.35736V6.42279C2.68945 7.76752 2.24121 8.32123 1.10742 8.54095C0.404297 8.69037 0 9.15619 0 9.83295ZM25.4131 9.83295C25.4131 9.15619 25.0088 8.69037 24.3057 8.54095C23.1807 8.31244 22.7236 7.76752 22.7236 6.42279V4.35736C22.7236 1.72943 21.502 0.542908 18.9355 0.542908C18.6719 0.542908 18.4521 0.569275 18.2676 0.630798C17.7578 0.780212 17.5469 1.10541 17.5469 1.52728C17.5469 1.96674 17.749 2.23041 18.127 2.36224C18.2324 2.3974 18.3643 2.41498 18.5137 2.43256C19.8584 2.52045 20.3594 3.12689 20.3594 4.62982V7.18744C20.3594 8.71674 21.2734 9.72748 22.7764 9.78021C22.8643 9.789 22.8555 9.89447 22.7764 9.90326C21.2734 9.97357 20.3594 10.9667 20.3594 12.5048V15.0624C20.3594 16.5654 19.8672 17.1454 18.5137 17.2597C18.3906 17.2773 18.2852 17.2949 18.1885 17.3212C17.7578 17.4355 17.5469 17.6992 17.5469 18.165C17.5469 18.6044 17.793 18.9472 18.2939 19.0703C18.4521 19.1142 18.6543 19.1406 18.8652 19.1406C21.4932 19.1406 22.7236 17.9716 22.7236 15.3437V13.2695C22.7236 11.916 23.1631 11.3622 24.3057 11.1425C25.0088 10.9931 25.4131 10.5185 25.4131 9.83295ZM11.7109 4.75C11.7109 4.33579 12.0467 4 12.4609 4H17.9609C18.3752 4 18.7109 4.33579 18.7109 4.75V5.25C18.7109 5.66421 18.3752 6 17.9609 6H12.4609C12.0467 6 11.7109 5.66421 11.7109 5.25V4.75ZM7.46094 4C7.04672 4 6.71094 4.33579 6.71094 4.75V5.25C6.71094 5.66421 7.04672 6 7.46094 6H9.96094C10.3752 6 10.7109 5.66421 10.7109 5.25V4.75C10.7109 4.33579 10.3752 4 9.96094 4H7.46094ZM6.71094 8.09003C6.71094 7.67581 7.04672 7.34003 7.46094 7.34003H14.9609C15.3752 7.34003 15.7109 7.67581 15.7109 8.09003V8.59003C15.7109 9.00424 15.3752 9.34003 14.9609 9.34003H7.46094C7.04672 9.34003 6.71094 9.00424 6.71094 8.59003V8.09003ZM17.4609 7.34003C17.0467 7.34003 16.7109 7.67581 16.7109 8.09003V8.59003C16.7109 9.00424 17.0467 9.34003 17.4609 9.34003H17.9609C18.3752 9.34003 18.7109 9.00424 18.7109 8.59003V8.09003C18.7109 7.67581 18.3752 7.34003 17.9609 7.34003H17.4609ZM12.7109 11.42C12.7109 11.0058 13.0467 10.67 13.4609 10.67H17.9609C18.3752 10.67 18.7109 11.0058 18.7109 11.42V11.92C18.7109 12.3342 18.3752 12.67 17.9609 12.67H13.4609C13.0467 12.67 12.7109 12.3342 12.7109 11.92V11.42ZM7.46094 10.67C7.04672 10.67 6.71094 11.0058 6.71094 11.42V11.92C6.71094 12.3342 7.04672 12.67 7.46094 12.67H10.9609C11.3752 12.67 11.7109 12.3342 11.7109 11.92V11.42C11.7109 11.0058 11.3752 10.67 10.9609 10.67H7.46094ZM6.71094 14.75C6.71094 14.3358 7.04672 14 7.46094 14H12.9609C13.3752 14 13.7109 14.3358 13.7109 14.75V15.25C13.7109 15.6642 13.3752 16 12.9609 16H7.46094C7.04672 16 6.71094 15.6642 6.71094 15.25V14.75ZM15.4609 14C15.0467 14 14.7109 14.3358 14.7109 14.75V15.25C14.7109 15.6642 15.0467 16 15.4609 16H17.9609C18.3752 16 18.7109 15.6642 18.7109 15.25V14.75C18.7109 14.3358 18.3752 14 17.9609 14H15.4609Z" fill="black"/>
</svg>
