<?xml version="1.0" standalone="no"?>
<!DOCTYPE svg PUBLIC "-//W3C//DTD SVG 20010904//EN"
 "http://www.w3.org/TR/2001/REC-SVG-20010904/DTD/svg10.dtd">
<svg version="1.0" xmlns="http://www.w3.org/2000/svg"
 width="700.000000pt" height="700.000000pt" viewBox="0 0 700.000000 700.000000"
 preserveAspectRatio="xMidYMid meet">
<g transform="translate(0.000000,700.000000) scale(0.100000,-0.100000)"
fill="#000000" stroke="none">
<path d="M1687 6124 c-1 -1 -40 -4 -86 -8 -46 -3 -86 -8 -90 -10 -4 -3 -26 -7
-51 -11 -61 -9 -195 -53 -255 -83 -160 -80 -284 -208 -355 -365 -28 -62 -68
-188 -76 -237 -2 -14 -6 -34 -9 -46 -5 -24 -14 -98 -20 -174 -2 -30 -5 -233
-5 -450 -2 -419 -7 -491 -47 -593 -37 -94 -113 -176 -207 -222 -28 -13 -95
-36 -149 -50 -170 -44 -254 -102 -304 -210 -49 -108 -38 -273 23 -368 58 -90
125 -131 279 -171 241 -63 340 -160 385 -375 16 -73 18 -145 20 -486 2 -540 6
-588 56 -765 64 -220 179 -377 354 -481 70 -42 205 -93 288 -109 26 -5 58 -12
71 -14 13 -3 58 -8 100 -12 251 -22 387 0 475 76 93 82 113 237 43 341 -42 62
-125 94 -302 115 -216 25 -361 147 -403 339 -23 102 -24 140 -27 620 -3 398
-6 503 -19 561 -65 301 -268 483 -596 539 -56 9 -71 16 -67 28 2 7 14 13 28
15 48 5 204 44 214 53 5 5 16 9 25 9 29 0 165 87 218 141 91 90 156 219 183
362 7 40 12 232 14 547 1 267 6 503 10 525 39 231 124 343 300 399 63 19 94
25 215 41 88 11 155 41 194 87 73 85 73 229 0 325 -54 72 -176 115 -332 117
-51 1 -94 1 -95 0z"/>
<path d="M5145 6123 c-67 -10 -136 -27 -141 -34 -3 -5 -13 -9 -23 -9 -33 0
-108 -77 -129 -132 -26 -70 -22 -164 10 -227 43 -84 117 -118 298 -136 237
-25 387 -153 425 -362 2 -16 9 -49 13 -76 5 -26 10 -260 11 -520 1 -259 6
-501 12 -536 24 -155 84 -277 189 -382 105 -106 230 -166 391 -185 30 -4 61
-8 68 -9 20 -2 26 -24 9 -29 -7 -3 -42 -7 -78 -11 -78 -7 -195 -45 -270 -87
-90 -51 -192 -162 -239 -260 -75 -154 -79 -193 -84 -768 -2 -278 -7 -521 -11
-540 -53 -262 -176 -373 -456 -410 -41 -5 -88 -12 -105 -15 -52 -10 -134 -55
-156 -86 -67 -95 -56 -258 24 -340 96 -99 341 -121 652 -58 362 74 580 288
665 652 29 126 31 152 36 447 12 765 10 726 44 824 53 156 154 237 365 292
154 40 221 81 279 171 69 107 72 289 5 400 -51 87 -161 156 -279 177 -54 9
-155 49 -204 80 -67 43 -112 96 -148 173 -49 104 -56 171 -57 576 -1 366 -6
539 -16 587 -3 14 -7 41 -9 60 -16 123 -67 276 -127 377 -19 32 -72 96 -119
143 -143 143 -323 219 -585 245 -76 8 -228 12 -260 8z"/>
<path d="M1985 5017 c-94 -37 -140 -117 -133 -230 6 -83 40 -139 108 -177 l45
-24 384 -1 c407 -1 423 1 485 48 49 38 71 90 71 167 -1 36 -3 75 -6 86 -10 44
-55 95 -103 119 l-50 25 -385 -1 c-270 0 -395 -4 -416 -12z"/>
<path d="M3353 5015 c-80 -35 -126 -112 -126 -211 1 -93 52 -173 132 -207 34
-14 1602 -17 1649 -3 48 14 107 69 127 118 41 104 11 221 -73 282 l-44 31
-816 2 c-679 2 -822 0 -849 -12z"/>
<path d="M1996 4146 c-191 -56 -194 -359 -4 -415 32 -10 287 -13 1102 -13 975
0 1064 2 1103 17 162 65 175 308 20 396 l-42 24 -1071 0 c-722 1 -1084 -2
-1108 -9z"/>
<path d="M4735 4139 c-54 -24 -79 -47 -105 -93 -61 -111 -10 -266 101 -310 48
-19 215 -23 277 -7 59 16 125 84 138 142 26 113 -23 225 -116 266 -54 24 -244
25 -295 2z"/>
<path d="M2039 3279 c-176 -19 -252 -236 -130 -373 9 -10 34 -28 56 -39 39
-21 53 -21 560 -22 571 -2 574 -1 635 58 107 104 76 300 -57 359 -41 18 -72
19 -526 21 -265 1 -507 -1 -538 -4z"/>
<path d="M3688 3279 c-59 -9 -98 -30 -136 -73 -85 -97 -59 -262 52 -331 l49
-30 656 -1 c710 -1 718 0 773 53 67 63 90 172 55 255 -21 51 -80 105 -128 118
-45 12 -1243 20 -1321 9z"/>
<path d="M1990 2396 c-47 -14 -116 -84 -129 -132 -14 -50 -13 -120 2 -162 17
-46 83 -110 126 -122 23 -6 326 -10 829 -10 857 0 832 -2 890 53 85 79 89 239
9 319 -66 65 -22 62 -897 63 -509 1 -808 -3 -830 -9z"/>
<path d="M4197 2395 c-49 -17 -77 -39 -109 -86 -53 -80 -46 -193 18 -267 62
-73 67 -73 516 -70 l396 3 43 30 c136 96 115 324 -36 386 -41 17 -780 21 -828
4z"/>
</g>
</svg>
