<svg 
  fill="currentColor" 
  viewBox="0 0 64 64" 
  xmlns="http://www.w3.org/2000/svg" 
>
  <path d="M13.873 7.305C21.21 12.832 29.103 24.037 32 30.05v15.882c0-.338-.13.044-.41.867-1.512 4.456-7.418 21.847-20.923 7.944-7.111-7.32-3.819-14.64 9.125-16.85-7.405 1.264-15.73-.825-18.014-9.015C1.12 26.522 0 12.01 0 10.05 0 .232 8.579 3.318 13.873 7.305ZM50.127 7.305C42.79 12.832 34.897 24.037 32 30.05v15.882c0-.338.13.044.41.867 1.512 4.456 7.418 21.847 20.923 7.944 7.111-7.32 3.819-14.64-9.125-16.85 7.405 1.264 15.73-.825 18.014-9.015C62.88 26.522 64 12.01 64 10.05c0-9.818-8.578-6.732-13.873-2.745Z"></path>
</svg>
