<svg 
  fill="currentColor"
  viewBox="0 0 24 24" 
  xmlns="http://www.w3.org/2000/svg" 
>
    <path d="M12,0.956056 C5.90254713,0.956056 0.959569945,5.89903318 0.959569945,11.9964861 C0.959569945,17.1742269 4.52408319,21.5187245 9.33289707,22.7117975 L9.33289707,15.3702648 L7.05627207,15.3702648 L7.05627207,11.9964861 L9.33289707,11.9964861 L9.33289707,10.5427264 C9.33289707,6.78491729 11.0334766,5.04317904 14.7227467,5.04317904 C15.42218,5.04317904 16.6290757,5.18030119 17.1228037,5.31746749 L17.1228037,8.37584326 L16.8926452,8.35784253 C16.6290619,8.34241008 16.2690583,8.33468454 15.8473249,8.33468454 C14.0370035,8.33468454 13.337526,9.02042773 13.337526,10.8033247 L13.337526,11.9964861 L16.9437279,11.9964861 L16.3242273,15.3702648 L13.337526,15.3702648 L13.337526,22.956056 C18.8041287,22.2957941 23.0404301,17.6411488 23.0404301,11.9964861 C23.0404301,5.89903318 18.0974529,0.956056 12,0.956056 Z"></path>
</svg>
